{"title":"The.Crew.2008.DVDRiP.XviD.OPTIONAL-MULTISUB-Zen_Bud","uid":5897925,"size":841869680,"categoryP":"video","categoryS":"movies","magnet":"?xt=urn:btih:c5db671f4a4305eba1aa16a6f5b499f5ff71b514&amp;dn=The.Crew.2008.DVDRiP.XviD.OPTIONAL-MULTISUB-Zen_Bud&amp;tr=udp%3A%2F%2Ftracker.openbittorrent.com%3A80&amp;tr=udp%3A%2F%2Fopen.demonii.com%3A1337&amp;tr=udp%3A%2F%2Ftracker.coppersurfer.tk%3A6969&amp;tr=udp%3A%2F%2Fexodus.desync.com%3A6969","seeders":1,"leechers":1,"uploader":"Zen_Bud","files":-1,"time":1287562735,"description":"\n********** The.Crew.2008.DVDRiP.XviD.OPTIONAL-MULTISUB-Zen_Bud ***********\n\nFormat                           : AVI\nFile size                        : 784 MiB\nDuration                         : 1h 57mn\nOverall bit rate                 : 931 Kbps\n\nVideo\n\nFormat                           : MPEG-4 Visual\nCodec ID/Hint                    : XviD\nDuration                         : 1h 57mn\nBit rate                         : 790 Kbps\nWidth                            : 720 pixels\nHeight                           : 554 pixels\nDisplay aspect ratio             : 16:9\nStream size                      : 665 MiB (85%)\nWriting library                  : XviD 1.1.2 (UTC 2006-11-01)\n\nAudio\n\nFormat                           : MPEG Audio\nCodec ID/Hint                    : MP3\nDuration                         : 1h 57mn\nBit rate                         : 128 Kbps\nChannel(s)                       : 2 channels\nSampling rate                    : 48.0 KHz\nStream size                      : 108 MiB (14%)\nLanguage                         : English\n\nText #1\nLanguage                         : Danish\n\nText #2\nLanguage                         : Swedish\n\nText #3\nLanguage                         : Norwegian\n\nText #4\nLanguage                         : Finnish\n\nText #5\nLanguage                         : Icelandic\n\n\nAs a major heist approaches and with betrayal all around him, \na respected crime boss has to summon all his street nous and killer instinct \nas he fights for survival.\n\n","torrent":{"xt":"urn:btih:c5db671f4a4305eba1aa16a6f5b499f5ff71b514","amp;dn":"The.Crew.2008.DVDRiP.XviD.OPTIONAL-MULTISUB-Zen_Bud","amp;tr":["udp%3A%2F%2Ftracker.openbittorrent.com%3A80","udp%3A%2F%2Fopen.demonii.com%3A1337","udp%3A%2F%2Ftracker.coppersurfer.tk%3A6969","udp%3A%2F%2Fexodus.desync.com%3A6969"],"infoHash":"c5db671f4a4305eba1aa16a6f5b499f5ff71b514","infoHashBuffer":{"type":"Buffer","data":[197,219,103,31,74,67,5,235,161,170,22,166,245,180,153,245,255,113,181,20]},"announce":[],"urlList":[]}}